PathFileType	4	(X/Y/Z)	D:\TRACE\v60_Jaco2_6-2-23\BothDRS_Motion3_4-platform.trc
DataRate	CameraRate	NumFrames	NumMarkers	Units	OrigDataRate	OrigDataStartFrame	OrigNumFrames
100.00	100.00	      54	5	mm	100.00	1751	      7000
Frame#	Time	Left_Front			Right_Front			Left_Aft			Right_Aft			Post			
		X1	Y1	Z1	X2	Y2	Z2	X3	Y3	Z3	X4	Y4	Z4	X5	Y5	Z5	

1751	17.500	-806.58063	11.19588	-650.66248	764.20093	9.39789	-628.16730	-737.13245	10.97461	485.70828	676.87488	7.94129	589.00592	-10.74912	1309.12134	-961.60742	
1752	17.510	-806.69733	11.06850	-650.65308	764.13055	9.36319	-628.15179	-737.23132	10.98827	485.73199	676.72144	7.92400	589.08069	-10.87050	1309.10522	-961.60345	
1753	17.520	-806.76904	11.06957	-650.70251	764.02600	9.30596	-628.14551	-737.34912	10.95362	485.69492	676.59961	7.88381	589.00732	-11.02928	1309.08215	-961.61420	
1754	17.530	-806.88837	10.93734	-650.75562	763.95239	9.25433	-628.09174	-737.47412	10.94512	485.70529	676.62000	7.88312	589.00201	-11.21036	1309.04712	-961.60089	
1755	17.540	-806.97156	10.91876	-650.84497	763.82294	9.22026	-628.15582	-737.55859	10.94209	485.65054	676.38757	7.99392	588.67035	-11.23884	1309.00598	-961.66028	
1756	17.550	-807.05981	10.90972	-650.96661	763.69342	9.16327	-628.16486	-737.66351	11.00339	485.62610	676.34607	8.09443	588.63568	-11.28905	1309.01587	-961.74640	
1757	17.560	-807.14093	10.89224	-651.09644	763.60474	9.07270	-628.17273	-737.80127	11.11531	485.61459	676.43451	8.22900	588.57312	-11.27827	1308.93005	-961.85333	
1758	17.570	-807.17419	10.88897	-651.10071	763.50146	8.95041	-628.22168	-737.88873	11.20199	485.53162	676.44733	8.21543	588.76703	-11.39097	1308.69983	-962.08936	
1759	17.580	-807.32501	10.85713	-651.11774	763.40094	8.75045	-628.23773	-738.06256	11.29677	485.46582	676.32617	8.36343	588.64960	-11.51349	1308.35229	-962.30865	
1760	17.590	-807.40912	10.82445	-651.25751	763.23553	8.66025	-628.27826	-738.15338	11.38123	485.38541	676.12567	8.48039	588.51794	-11.74265	1308.02588	-962.76807	
1761	17.600	-807.53845	10.75226	-651.35980	763.11481	8.51486	-628.30957	-738.19263	11.56119	485.30222	675.98749	8.62368	588.47675	-11.91426	1307.76404	-963.19092	
1762	17.610	-807.77460	10.50884	-651.42572	762.96857	8.24464	-628.38129	-738.31390	11.77643	485.18503	675.80927	8.74191	588.46002	-12.14329	1307.56824	-963.60736	
1763	17.620	-807.77777	10.27136	-651.48627	762.86530	7.84566	-628.39136	-738.47894	11.90838	485.15005	675.53064	8.97116	588.55151	-12.11078	1307.30347	-964.11267	
1764	17.630	-807.84930	10.03293	-651.57886	762.68628	7.51335	-628.44879	-738.66333	11.97781	485.16177	675.38849	9.11195	588.54077	-12.14572	1307.11682	-964.45874	
1765	17.640	-808.23267	9.55170	-651.63367	762.54456	7.39637	-628.48407	-738.90039	12.25722	485.21759	675.04541	9.37045	588.69171	-12.20535	1306.60535	-965.17401	
1766	17.650	-808.30774	9.36855	-651.62402	762.44476	7.39240	-628.49390	-739.07397	12.31364	485.08783	674.96100	9.49411	588.39838	-12.54206	1306.19324	-966.03284	
1767	17.660	-808.50476	9.15742	-651.55609	762.23822	7.14320	-628.59894	-738.87030	12.62746	485.19226	674.79279	9.71226	588.30817	-12.78367	1306.04944	-966.50500	
1768	17.670	-808.67706	8.78204	-651.54279	762.04431	6.90100	-628.71344	-739.04419	12.98465	485.18033	674.87097	9.79641	588.21222	-12.96947	1305.75452	-967.19165	
1769	17.680	-808.57098	8.59011	-651.58734	761.88306	6.67391	-628.75018	-739.27722	13.14343	485.23013	674.92395	9.73581	588.05933	-13.08522	1305.49329	-967.60840	
1770	17.690	-808.66461	8.35195	-651.67432	761.76007	6.52449	-628.82788	-739.47357	13.21856	485.08102	674.63635	9.87475	587.98792	-13.20991	1305.09436	-968.21332	
1771	17.700	-808.72052	8.15031	-651.83453	761.66492	6.11841	-628.78113	-739.49622	13.10543	484.99789	674.42316	10.16593	588.02002	-13.30033	1304.68127	-968.57281	
1772	17.710	-808.56458	7.63633	-651.62384	761.55957	5.81544	-628.84631	-739.54523	13.38094	484.83548	673.81110	10.77875	588.26471	-13.50637	1304.16760	-969.07153	
1773	17.720	-808.76532	7.44802	-651.85065	761.36664	5.56185	-628.97815	-739.63672	13.58972	484.76025	673.90161	10.93547	588.09418	-13.31716	1303.55688	-969.47357	
1774	17.730	-809.27948	7.01632	-652.04016	761.23157	5.20775	-629.08575	-739.90240	13.87644	484.54797	673.79364	11.28878	587.72693	-13.36084	1303.06616	-969.99030	
1775	17.740	-809.45197	6.93582	-652.04535	761.21588	4.69472	-629.17889	-740.20294	14.15187	484.47321	673.79651	11.45574	587.70667	-13.51840	1302.59045	-970.37866	
1776	17.750	-809.49426	6.46794	-652.12946	761.01764	4.30159	-629.20868	-740.30597	14.28457	484.40912	673.70923	11.56381	587.62769	-13.90490	1301.86792	-971.24554	
1777	17.760	-809.53729	6.00431	-652.20575	760.88757	3.96298	-629.30695	-740.42841	14.45624	484.38538	673.29163	11.95923	587.48102	-14.06302	1301.41455	-972.14459	
1778	17.770	-809.56842	5.65079	-652.32483	760.80157	3.55325	-629.55670	-740.51129	14.65126	484.30630	673.18909	12.32895	587.51624	-14.02618	1300.71106	-973.07544	
1779	17.780	-810.00403	5.13549	-652.26752	760.67139	3.15635	-629.62457	-740.63501	15.00942	484.21982	673.24176	12.66224	587.18097	-14.12545	1300.03101	-974.36951	
1780	17.790	-809.95209	4.71615	-652.44220	760.51721	2.66198	-629.72272	-740.80664	15.35581	484.11127	673.03778	12.94903	587.10394	-14.22062	1299.61902	-975.62292	
1781	17.800	-809.98615	4.24569	-652.53357	760.44257	2.29686	-629.80627	-740.98047	15.67363	484.06537	672.93640	13.30337	587.11639	-14.33901	1298.73840	-976.96265	
1782	17.810	-809.95502	3.69382	-652.66272	760.33649	1.83795	-629.94989	-741.05023	16.22099	484.01437	672.90924	13.71084	587.10150	-14.53506	1297.96985	-978.21014	
1783	17.820	-810.05334	3.18536	-652.68408	760.13440	1.33563	-630.08118	-741.01093	16.54877	483.98056	672.63959	14.11890	587.22205	-14.55267	1297.39124	-979.35529	
1784	17.830	-810.23236	2.68407	-652.76379	760.10254	0.82103	-630.16626	-740.94617	16.77061	483.77454	672.79272	14.69614	586.66882	-14.49593	1296.63074	-980.59833	
1785	17.840	-810.32532	2.13586	-653.05182	760.12793	0.20622	-630.24323	-741.03156	17.11439	483.48987	672.77368	15.25412	586.95935	-14.79402	1295.79187	-981.78540	
1786	17.850	-810.31219	1.60945	-653.23389	760.05878	-0.41559	-630.40924	-741.13934	17.42387	483.27823	672.71887	15.48752	586.45911	-14.71112	1294.86621	-982.65338	
1787	17.860	-810.44794	1.09495	-653.14838	759.96283	-0.83484	-630.51392	-741.39227	17.85179	483.25821	672.69751	15.73517	586.34814	-14.75112	1294.04785	-983.63971	
1788	17.870	-810.23279	0.38010	-653.04218	759.87866	-1.38734	-630.61621	-741.55475	18.34706	483.01990	672.50250	16.19226	586.10956	-14.72430	1293.37048	-984.88214	
1789	17.880	-810.51514	-0.25077	-653.53760	759.90222	-2.02563	-630.80231	-741.14270	18.65423	482.94287	672.67133	16.79317	586.00519	-14.61726	1292.09436	-985.81940	
1790	17.890	-810.51422	-0.90429	-653.78510	759.96246	-2.65076	-630.96722	-741.27155	19.35981	482.70764	672.68182	17.27420	585.80743	-14.60943	1291.68970	-987.00800	
1791	17.900	-810.45074	-1.28805	-653.79163	759.70319	-3.38751	-630.98206	-741.31537	19.71762	482.60281	672.74359	17.98492	585.56012	-14.99813	1290.32849	-988.26135	
1792	17.910	-810.26599	-1.80493	-653.76630	759.76361	-3.98944	-631.13171	-741.59283	20.26499	482.22510	672.44775	18.53020	585.53119	-14.51150	1289.43201	-989.50714	
1793	17.920	-810.74664	-2.66461	-654.14880	759.76245	-4.63790	-631.26379	-741.72021	20.76904	482.01016	672.22766	18.85486	585.30780	-14.87618	1288.48499	-991.08838	
1794	17.930	-810.85730	-3.44683	-654.18256	759.81488	-5.37339	-631.41943	-741.68799	21.29304	481.87003	672.42566	19.46755	584.94598	-14.71166	1287.24121	-992.59302	
1795	17.940	-810.67413	-4.04215	-654.21582	759.77582	-6.02293	-631.60468	-741.71899	21.64247	481.84256	672.87653	19.94824	584.71381	-14.81726	1286.20166	-994.40289	
1796	17.950	-810.57800	-4.85602	-654.27771	759.76361	-6.71952	-631.76697	-741.55188	21.94757	481.61447	672.87836	20.74550	584.61523	-14.71927	1285.14160	-996.09039	
1797	17.960	-810.68793	-5.73710	-654.99719	759.71222	-7.57654	-631.75568	-741.38708	22.43142	481.49066	672.71124	21.46700	584.54272	-14.98448	1284.01624	-997.97113	
1798	17.970	-810.98651	-5.94644	-654.81793	759.76343	-8.30207	-632.06390	-741.37189	22.99106	481.35510	672.75513	21.76078	584.39117	-14.73515	1282.73206	-999.63849	
1799	17.980	-810.74408	-7.03529	-654.97803	759.80676	-9.15200	-632.25385	-741.60394	23.63931	481.16898	672.71490	22.32651	584.13342	-15.18883	1281.42029	-1001.35480	
1800	17.990	-810.87427	-8.35394	-655.20093	759.92175	-9.73195	-632.41223	-741.56665	24.04516	480.85007	672.66284	22.99513	583.83063	-14.60241	1280.56592	-1003.24402	
1801	18.000	-810.67181	-8.62877	-655.29779	760.01648	-10.35141	-632.51746	-741.30273	24.45038	480.81647	672.97125	23.72804	583.52191	-14.43542	1279.21960	-1005.12640	
1802	18.010	-810.63507	-9.29598	-655.61316	760.13007	-11.31587	-632.81506	-741.04199	25.00855	480.68433	672.98730	24.33754	583.39746	-14.28374	1278.04028	-1006.60065	
1803	18.020	-810.53552	-10.07960	-656.04712	760.29059	-12.12977	-632.93542	-740.95905	25.72924	480.21985	673.36725	25.02822	583.12262	-14.01652	1276.53418	-1008.25452	
1804	18.030	-810.26135	-11.35995	-655.95386	760.65491	-13.02702	-633.24237	-740.87164	26.54148	479.98404	673.55731	25.85040	582.73169	-13.99038	1275.50732	-1009.97784	
